<svg xmlns="http://www.w3.org/2000/svg" width="1200" height="630" viewBox="0 0 1200 630">
  <defs>
    <pattern id="dots" width="34" height="34" patternUnits="userSpaceOnUse">
      <circle cx="3" cy="3" r="2.2" fill="#FFFFFF" fill-opacity="0.10"/>
    </pattern>
    <clipPath id="ring"><circle cx="985" cy="315" r="150"/></clipPath>
  </defs>

  <!-- Fondo teal con textura de puntos -->
  <rect width="1200" height="630" fill="#1F6F78"/>
  <rect width="1200" height="630" fill="url(#dots)"/>

  <!-- Emblema circular -->
  <circle cx="985" cy="315" r="158" fill="#15505A"/>
  <g clip-path="url(#ring)">
    <rect x="835" y="165" width="300" height="300" fill="#1F6F78"/>
    <circle cx="1020" cy="270" r="42" fill="#F7CD6E"/>
    <path d="M835 360c34-20 54-54 88-54s48 38 82 31 60-40 108-31v100H835z" fill="#15505A"/>
    <path d="M835 395c40-17 60-34 100-34s54 27 94 20 54-27 100-20v80H835z" fill="#0F3E47"/>
  </g>
  <circle cx="985" cy="315" r="153" fill="none" stroke="#F4EEE1" stroke-width="10"/>

  <!-- Wordmark + tagline -->
  <text x="96" y="300" font-family="'Baloo 2', 'Trebuchet MS', sans-serif" font-size="120" font-weight="800" fill="#F7CD6E">Vivir Claro</text>
  <text x="100" y="372" font-family="'Poppins', 'Segoe UI', sans-serif" font-size="40" fill="#F4EEE1">Herramientas para pensar, sentir y decidir mejor.</text>
  <text x="100" y="520" font-family="'Poppins', 'Segoe UI', sans-serif" font-size="27" fill="#F7CD6E" letter-spacing="3">LIBRO  ·  EPUB  ·  PDF  ·  vivirclaro.com</text>
</svg>
